<?xml version="1.0" standalone="no"?>
<!DOCTYPE svg PUBLIC "-//W3C//DTD SVG 20010904//EN"
 "http://www.w3.org/TR/2001/REC-SVG-20010904/DTD/svg10.dtd">
<svg version="1.0" xmlns="http://www.w3.org/2000/svg"
 width="260.000000pt" height="260.000000pt" viewBox="0 0 260.000000 260.000000"
 preserveAspectRatio="xMidYMid meet">
<metadata>
Created by potrace 1.11, written by Peter Selinger 2001-2013
</metadata>
<g transform="translate(0.000000,260.000000) scale(0.100000,-0.100000)"
fill="#000000" stroke="none">
<path d="M1130 2590 c-313 -54 -533 -164 -741 -370 -177 -175 -292 -376 -349
-610 -31 -126 -35 -162 -35 -310 0 -238 30 -368 132 -575 78 -160 140 -243
278 -374 250 -236 534 -348 884 -348 282 -1 493 62 726 216 103 68 355 322
355 359 0 6 3 12 8 12 8 0 7 -2 79 142 51 103 101 247 108 316 2 20 4 37 5 37
8 0 13 65 15 192 3 130 0 169 -21 264 -50 238 -127 403 -265 574 -200 247
-462 402 -785 464 -98 18 -314 24 -394 11z m-450 -675 c41 -3 84 -7 95 -9 11
-2 45 -7 75 -11 30 -4 60 -10 65 -13 6 -4 15 -7 20 -8 71 -12 82 -15 130 -34
115 -45 156 -64 194 -89 l43 -29 37 25 c152 103 430 170 736 177 l60 1 -1
-545 c-1 -300 -3 -580 -4 -623 -3 -75 -3 -77 -29 -78 -110 -2 -234 -14 -326
-30 -33 -6 -69 -12 -80 -14 -88 -11 -295 -90 -352 -134 -34 -27 -46 -26 -96 7
-71 47 -157 81 -299 118 -117 30 -192 40 -362 49 -55 3 -102 8 -105 11 -6 6
-10 1212 -3 1230 3 12 36 12 202 -1z"/>
<path d="M684 1299 l1 -414 25 -1 c14 -1 39 -4 55 -8 17 -3 48 -8 70 -11 66
-10 189 -43 275 -74 44 -16 81 -26 83 -23 2 4 3 189 3 412 l-1 405 -90 36
c-49 20 -92 35 -93 34 -2 -2 -25 3 -50 10 -26 7 -63 16 -82 19 -19 3 -46 8
-58 11 -13 2 -50 7 -81 11 l-58 6 1 -413z"/>
<path d="M1837 1704 c-1 -1 -24 -5 -51 -8 -27 -4 -52 -9 -55 -11 -3 -1 -23 -6
-44 -9 -50 -8 -124 -31 -209 -64 l-68 -27 1 -60 c1 -33 0 -214 0 -403 -1 -188
1 -347 4 -352 3 -5 25 -1 51 10 41 18 140 50 168 54 6 1 17 5 24 9 6 5 12 6
12 4 0 -3 36 3 80 13 44 10 83 18 85 19 3 1 22 1 43 1 l38 0 0 415 0 416 -38
-3 c-21 -1 -40 -3 -41 -4z"/>
</g>
</svg>
