<svg aria-hidden="true" focusable="false" data-prefix="far" data-icon="list" role="img" 
  xmlns="http://www.w3.org/2000/svg" viewBox="0 0 512 512" class="svg-inline--fa fa-list fa-w-16 fa-9x">
  <path fill="currentColor" d="M80 48H16A16 16 0 0 0 0 64v64a16 16 0 0 0 16 16h64a16 16 0 0 0 16-16V64a16 16 0 0 0-16-16zm0 160H16a16 16 0 0 0-16 16v64a16 16 0 0 0 16 16h64a16 16 0 0 0 16-16v-64a16 16 0 0 0-16-16zm0 160H16a16 16 0 0 0-16 16v64a16 16 0 0 0 16 16h64a16 16 0 0 0 16-16v-64a16 16 0 0 0-16-16zm416-136H176a16 16 0 0 0-16 16v16a16 16 0 0 0 16 16h320a16 16 0 0 0 16-16v-16a16 16 0 0 0-16-16zm0 160H176a16 16 0 0 0-16 16v16a16 16 0 0 0 16 16h320a16 16 0 0 0 16-16v-16a16 16 0 0 0-16-16zm0-320H176a16 16 0 0 0-16 16v16a16 16 0 0 0 16 16h320a16 16 0 0 0 16-16V88a16 16 0 0 0-16-16z" class=""></path>
</svg>