<svg version="1.0" xmlns="http://www.w3.org/2000/svg" viewBox="0 0 300 300">
  <g transform="translate(0.000000,300.000000) scale(0.100000,-0.100000)"
  fill="currentColor" stroke="none">
  <path d="M1335 2988 c-618 -69 -1133 -518 -1285 -1122 -105 -415 -32 -840 207
  -1200 90 -136 273 -319 409 -409 258 -171 524 -251 834 -251 310 0 576 80 834
  251 136 90 319 273 409 409 238 360 312 785 207 1199 -136 542 -560 961 -1102
  1090 -180 42 -340 53 -513 33z m-380 -797 c205 -34 396 -99 499 -171 l47 -32
  47 31 c176 113 452 184 764 198 l148 6 0 -716 c0 -567 -3 -717 -12 -717 -7 0
  -80 -5 -163 -10 -323 -20 -579 -89 -742 -202 l-42 -28 -50 35 c-138 99 -494
  195 -725 195 -29 0 -81 3 -115 6 l-61 7 0 715 0 715 143 -6 c78 -4 196 -16
  262 -26z"/>
  <path d="M790 1498 l0 -478 34 0 c98 0 351 -59 477 -110 39 -17 73 -30 75 -30
  2 0 4 213 4 474 l0 473 -57 26 c-122 54 -296 98 -457 115 l-76 8 0 -478z"/>
  <path d="M2135 1969 c-163 -21 -339 -65 -448 -114 l-57 -25 -2 -287 c0 -159
  -2 -372 -3 -475 0 -104 3 -188 7 -188 5 0 26 9 46 19 90 46 402 121 503 121
  l29 0 0 480 c0 264 -1 479 -2 479 -2 -1 -34 -5 -73 -10z"/>
  </g>
</svg>
